HIERARCHY
ROOT Hips
{
	OFFSET 0.000000 0.000000 0.000000 
	CHANNELS 6 Xposition Yposition Zposition Yrotation Xrotation Zrotation
	JOINT Spine
	{
		OFFSET 0.000000 0.072080 0.012321 
		CHANNELS 3 Xrotation Yrotation Zrotation
		JOINT Spine1
		{
			OFFSET 0.000000 0.126984 -0.001294 
			CHANNELS 3 Xrotation Yrotation Zrotation
			JOINT Spine2
			{
				OFFSET 0.000000 0.106559 -0.010096 
				CHANNELS 3 Xrotation Yrotation Zrotation
				JOINT Neck
				{
					OFFSET 0.000000 0.108417 -0.034017 
					CHANNELS 3 Xrotation Yrotation Zrotation
					JOINT Neck1
					{
						OFFSET 0.000000 0.033906 0.007241 
						CHANNELS 3 Xrotation Yrotation Zrotation
						JOINT Head
						{
							OFFSET 0.000000 0.031458 0.006707 
							CHANNELS 3 Xrotation Yrotation Zrotation
							End Site
							{
								OFFSET 0.000000 0.179920 0.000962 
							}
						}
					}
				}
				JOINT LeftShoulder
				{
					OFFSET 0.048002 0.079586 -0.029634 
					CHANNELS 3 Zrotation Xrotation Yrotation
					JOINT LeftArm
					{
						OFFSET 0.096243 -0.008695 -0.014012 
						CHANNELS 3 Zrotation Xrotation Yrotation
						JOINT LeftForeArm
						{
							OFFSET 0.216305 0.000000 0.000000 
							CHANNELS 3 Xrotation Zrotation Yrotation
							JOINT LeftHand
							{
								OFFSET 0.217764 0.000000 0.000000 
								CHANNELS 3 Zrotation Yrotation Xrotation
								JOINT LeftHandThumb1
								{
									OFFSET 0.018582 -0.007835 0.020476 
									CHANNELS 3 Zrotation Xrotation Yrotation
									JOINT LeftHandThumb2
									{
										OFFSET 0.026269 -0.007835 0.022186 
										CHANNELS 3 Zrotation Xrotation Yrotation
										JOINT LeftHandThumb3
										{
											OFFSET 0.035170 -0.010504 0.017018 
											CHANNELS 3 Zrotation Xrotation Yrotation
											End Site
											{
												OFFSET 0.020312 -0.007813 0.007813 
											}
										}
									}
								}
								JOINT LeftHandMiddle1
								{
									OFFSET 0.081749 0.004803 0.003358 
									CHANNELS 3 Zrotation Xrotation Yrotation
									JOINT LeftHandMiddle2
									{
										OFFSET 0.045251 0.000000 0.000000 
										CHANNELS 3 Zrotation Xrotation Yrotation
										JOINT LeftHandMiddle3
										{
											OFFSET 0.029009 0.000000 0.000000 
											CHANNELS 3 Zrotation Xrotation Yrotation
											End Site
											{
												OFFSET 0.017969 0.000000 0.000000 
											}
										}
									}
								}
								JOINT LeftHandIndex1
								{
									OFFSET 0.081207 0.004803 0.021137 
									CHANNELS 3 Zrotation Xrotation Yrotation
									JOINT LeftHandIndex2
									{
										OFFSET 0.043354 0.000000 0.000000 
										CHANNELS 3 Zrotation Xrotation Yrotation
										JOINT LeftHandIndex3
										{
											OFFSET 0.026493 0.000000 0.000000 
											CHANNELS 3 Zrotation Xrotation Yrotation
											End Site
											{
												OFFSET 0.019531 0.000000 0.000000 
											}
										}
									}
								}
								JOINT LeftHandRing1
								{
									OFFSET 0.080666 0.002509 -0.014652 
									CHANNELS 3 Zrotation Xrotation Yrotation
									JOINT LeftHandRing2
									{
										OFFSET 0.042541 0.000000 0.000000 
										CHANNELS 3 Zrotation Xrotation Yrotation
										JOINT LeftHandRing3
										{
											OFFSET 0.029009 0.000000 0.000000 
											CHANNELS 3 Zrotation Xrotation Yrotation
											End Site
											{
												OFFSET 0.015625 0.000000 0.000000 
											}
										}
									}
								}
								JOINT LeftHandPinky1
								{
									OFFSET 0.078227 -0.000612 -0.030993 
									CHANNELS 3 Zrotation Xrotation Yrotation
									JOINT LeftHandPinky2
									{
										OFFSET 0.028721 0.000000 0.000000 
										CHANNELS 3 Zrotation Xrotation Yrotation
										JOINT LeftHandPinky3
										{
											OFFSET 0.021963 0.000000 0.000000 
											CHANNELS 3 Zrotation Xrotation Yrotation
											End Site
											{
												OFFSET 0.022656 0.000000 0.000000 
											}
										}
									}
								}
							}
						}
					}
				}
				JOINT RightShoulder
				{
					OFFSET -0.047970 0.079586 -0.029634 
					CHANNELS 3 Zrotation Xrotation Yrotation
					JOINT RightArm
					{
						OFFSET -0.096274 -0.008695 -0.014012 
						CHANNELS 3 Zrotation Xrotation Yrotation
						JOINT RightForeArm
						{
							OFFSET -0.216305 0.000000 0.000000 
							CHANNELS 3 Xrotation Zrotation Yrotation
							JOINT RightHand
							{
								OFFSET -0.217764 0.000000 0.000000 
								CHANNELS 3 Zrotation Yrotation Xrotation
								JOINT RightHandThumb1
								{
									OFFSET -0.019670 -0.007318 0.019638 
									CHANNELS 3 Zrotation Xrotation Yrotation
									JOINT RightHandThumb2
									{
										OFFSET -0.025498 -0.008492 0.023179 
										CHANNELS 3 Zrotation Xrotation Yrotation
										JOINT RightHandThumb3
										{
											OFFSET -0.034504 -0.010705 0.016680 
											CHANNELS 3 Zrotation Xrotation Yrotation
											End Site
											{
												OFFSET -0.020312 -0.007813 0.007813 
											}
										}
									}
								}
								JOINT RightHandIndex1
								{
									OFFSET -0.081770 0.003825 0.021187 
									CHANNELS 3 Zrotation Xrotation Yrotation
									JOINT RightHandIndex2
									{
										OFFSET -0.042006 0.000000 0.000000 
										CHANNELS 3 Zrotation Xrotation Yrotation
										JOINT RightHandIndex3
										{
											OFFSET -0.026449 0.000000 0.000000 
											CHANNELS 3 Zrotation Xrotation Yrotation
											End Site
											{
												OFFSET -0.020312 0.000000 0.000000 
											}
										}
									}
								}
								JOINT RightHandMiddle1
								{
									OFFSET -0.084059 0.003825 0.003342 
									CHANNELS 3 Zrotation Xrotation Yrotation
									JOINT RightHandMiddle2
									{
										OFFSET -0.043881 0.000000 0.000000 
										CHANNELS 3 Zrotation Xrotation Yrotation
										JOINT RightHandMiddle3
										{
											OFFSET -0.029191 0.000000 0.000000 
											CHANNELS 3 Zrotation Xrotation Yrotation
											End Site
											{
												OFFSET -0.017969 0.000000 0.000000 
											}
										}
									}
								}
								JOINT RightHandRing1
								{
									OFFSET -0.081798 0.003030 -0.015127 
									CHANNELS 3 Zrotation Xrotation Yrotation
									JOINT RightHandRing2
									{
										OFFSET -0.042198 0.000000 0.000000 
										CHANNELS 3 Zrotation Xrotation Yrotation
										JOINT RightHandRing3
										{
											OFFSET -0.026497 0.000000 0.000000 
											CHANNELS 3 Zrotation Xrotation Yrotation
											End Site
											{
												OFFSET -0.017188 0.000000 0.000000 
											}
										}
									}
								}
								JOINT RightHandPinky1
								{
									OFFSET -0.077902 -0.000930 -0.030891 
									CHANNELS 3 Zrotation Xrotation Yrotation
									JOINT RightHandPinky2
									{
										OFFSET -0.028538 0.000000 0.000000 
										CHANNELS 3 Zrotation Xrotation Yrotation
										JOINT RightHandPinky3
										{
											OFFSET -0.021734 0.000000 0.000000 
											CHANNELS 3 Zrotation Xrotation Yrotation
											End Site
											{
												OFFSET -0.022656 0.000000 0.000000 
											}
										}
									}
								}
							}
						}
					}
				}
			}
		}
	}
	JOINT LeftUpLeg
	{
		OFFSET 0.075264 -0.025573 0.000000 
		CHANNELS 3 Xrotation Yrotation Zrotation
		JOINT LeftLeg
		{
			OFFSET 0.000000 -0.326016 -0.013516 
			CHANNELS 3 Xrotation Yrotation Zrotation
			JOINT LeftFoot
			{
				OFFSET 0.000098 -0.306172 -0.006623 
				CHANNELS 3 Xrotation Yrotation Zrotation
				JOINT LeftToeBase
				{
					OFFSET -0.001432 -0.095259 0.064705 
					CHANNELS 3 Xrotation Yrotation Zrotation
					End Site
					{
						OFFSET 0.000000 0.000000 0.079438 
					}
				}
			}
		}
	}
	JOINT RightUpLeg
	{
		OFFSET -0.075264 -0.025573 0.000000 
		CHANNELS 3 Xrotation Yrotation Zrotation
		JOINT RightLeg
		{
			OFFSET 0.000000 -0.326016 -0.013516 
			CHANNELS 3 Xrotation Yrotation Zrotation
			JOINT RightFoot
			{
				OFFSET 0.000098 -0.306172 -0.006623 
				CHANNELS 3 Xrotation Yrotation Zrotation
				JOINT RightToeBase
				{
					OFFSET -0.001432 -0.095259 0.064705 
					CHANNELS 3 Xrotation Yrotation Zrotation
					End Site
					{
						OFFSET 0.000025 0.000000 0.079438 
					}
				}
			}
		}
	}
}
MOTION
Frames: 7
Frame Time: 0.033333
-0.010874 0.726951 0.000995 -6.162600 -3.446900 -4.413100 -2.192600 -1.546400 5.010800 0.009700 -2.154100 6.568500 0.064600 -1.918800 6.641600 5.206400 0.427600 -2.739600 -0.000000 0.000000 -0.000000 2.504400 4.236900 -10.273300 -10.256500 0.155900 2.625000 -80.873703 16.783100 6.362500 -0.000000 0.000000 -13.252400 -6.698500 -7.768700 8.717200 0.962200 6.706400 19.969801 6.524000 -5.898800 8.178200 5.231700 -1.657800 15.521600 -8.207100 0.382900 -2.120700 -28.829201 -0.125800 0.489500 -22.504200 -0.077300 0.388600 -3.999700 0.224300 -2.963600 -25.969801 -0.102500 0.444600 -16.355700 -0.041100 0.285900 -12.557400 0.539100 -2.470900 -41.337799 -0.253000 0.670600 -33.285900 -0.166600 0.557200 -17.575800 0.708400 0.029200 -30.326300 1.923600 -3.015100 -53.456100 -0.410700 0.815700 13.675200 1.763800 5.020700 57.397202 9.087100 -11.889200 -0.000000 -0.000000 11.196600 5.725800 -2.347100 -6.708500 0.395500 1.949200 -16.517799 -5.728300 1.929700 -9.577800 -5.005900 1.188800 -9.585300 5.732800 0.254800 2.680000 20.388599 -0.143100 -0.795900 10.489200 -0.038200 -0.415900 7.068900 0.298800 1.877100 32.157101 -0.350500 -1.215900 19.480301 -0.122800 -0.761800 16.341499 0.566000 0.884200 38.320702 -0.492200 -1.416600 38.255100 -0.483400 -1.414500 21.949800 0.691700 1.527200 31.848000 -0.343900 -1.205500 57.197899 -1.047100 -1.920500 -23.778601 12.901700 17.723801 20.339199 -4.248400 3.877700 3.356400 0.184300 -10.053800 2.255800 -0.000000 -0.000000 -3.397300 -8.757100 7.359700 25.635500 -7.549900 1.434000 -18.533501 0.446600 -2.962400 -0.315900 -0.000000 -0.000000 
-0.010863 0.726981 0.001140 -6.134500 -3.426500 -4.407300 -2.207800 -1.544000 5.007300 -0.004100 -2.148100 6.563500 0.050500 -1.912500 6.636600 5.241600 0.419100 -2.744600 -0.000000 0.000000 -0.000000 2.654600 4.200700 -10.348500 -10.246000 0.159300 2.600100 -80.932198 16.800301 6.380100 0.000000 0.000000 -13.252300 -6.548600 -7.850000 8.551300 0.962200 6.706400 19.969801 6.523900 -5.898800 8.178200 5.231700 -1.657800 15.521600 -8.207200 0.382900 -2.120700 -28.829201 -0.125800 0.489500 -22.504200 -0.077300 0.388600 -3.999700 0.224300 -2.963600 -25.969801 -0.102500 0.444600 -16.355700 -0.041100 0.285900 -12.553600 0.538900 -2.471100 -41.320301 -0.252800 0.670300 -33.268501 -0.166400 0.556900 -17.565001 0.708000 0.028900 -30.306200 1.922600 -3.016200 -53.436001 -0.410400 0.815400 13.668700 1.768000 5.044500 57.452702 9.235700 -11.912900 -0.000000 0.000000 11.152700 5.972900 -2.358700 -6.492100 0.385100 1.954600 -16.513201 -5.714700 1.927200 -9.591200 -5.001700 1.206400 -9.578700 5.725900 0.254600 2.684900 20.400700 -0.143300 -0.796300 10.487300 -0.038200 -0.415800 7.059300 0.298500 1.877600 32.170700 -0.350800 -1.216400 19.534901 -0.123500 -0.763900 16.352400 0.566300 0.879900 38.343601 -0.492800 -1.417300 38.335499 -0.485400 -1.417000 21.973801 0.692200 1.525600 31.861099 -0.344200 -1.205900 57.321800 -1.051300 -1.923100 -23.794300 12.913800 17.725401 20.338699 -4.278200 3.847200 3.345900 0.186600 -10.029100 2.284800 -0.000000 0.000000 -3.389300 -8.760000 7.348400 25.605499 -7.562800 1.445100 -18.531700 0.447100 -2.960200 -0.307800 0.000000 -0.000000 
-0.010851 0.727016 0.001303 -6.109400 -3.408200 -4.397900 -2.222900 -1.539400 4.989900 -0.023000 -2.141400 6.545000 0.031100 -1.906500 6.618100 5.259400 0.416300 -2.754600 -0.000000 0.000000 -0.000000 2.798500 4.192000 -10.445400 -10.228600 0.159300 2.596000 -80.952202 16.811899 6.398300 0.000000 -0.000000 -13.252200 -6.461600 -7.912300 8.398700 0.962200 6.706400 19.969700 6.523900 -5.898800 8.178200 5.231700 -1.657800 15.521600 -8.207200 0.382900 -2.120700 -28.829201 -0.125800 0.489500 -22.504200 -0.077300 0.388600 -3.999700 0.224300 -2.963600 -25.969700 -0.102500 0.444600 -16.355700 -0.041100 0.285900 -12.542600 0.538500 -2.471400 -41.269100 -0.252200 0.669600 -33.217300 -0.165900 0.556200 -17.533199 0.707000 0.027900 -30.247200 1.919500 -3.019200 -53.376900 -0.409600 0.814800 13.673800 1.777400 5.089100 57.604500 9.400600 -11.943700 0.000000 0.000000 11.048600 6.152100 -2.329400 -6.330600 0.393300 1.950500 -16.511200 -5.708200 1.926000 -9.597700 -5.000000 1.215100 -9.582700 5.731400 0.254700 2.680900 20.406500 -0.143400 -0.796500 10.488800 -0.038200 -0.415900 7.067100 0.298800 1.877200 32.177200 -0.350900 -1.216600 19.545300 -0.123700 -0.764300 16.357800 0.566400 0.882700 38.354401 -0.493100 -1.417600 38.350899 -0.485800 -1.417500 21.985201 0.692400 1.525300 31.867399 -0.344400 -1.206100 57.345501 -1.052100 -1.923700 -23.802799 12.925000 17.725201 20.337999 -4.301800 3.812400 3.331900 0.187700 -10.002800 2.308800 0.000000 -0.000000 -3.377000 -8.767700 7.336700 25.573500 -7.574900 1.447600 -18.530800 0.446700 -2.953200 -0.302400 -0.000000 0.000000 
-0.010832 0.727055 0.001488 -6.089000 -3.393100 -4.384400 -2.231900 -1.532200 4.955000 -0.043800 -2.135300 6.509200 0.009700 -1.902500 6.582100 5.256100 0.422100 -2.769900 -0.000000 0.000000 -0.000000 2.950100 4.224300 -10.568600 -10.197100 0.154900 2.618700 -80.937698 16.804100 6.416700 0.000000 0.000000 -13.252200 -6.431500 -7.946100 8.277400 0.962200 6.706400 19.969700 6.524000 -5.898800 8.178200 5.231700 -1.657800 15.521600 -8.207100 0.382900 -2.120700 -28.829201 -0.125800 0.489500 -22.504200 -0.077300 0.388600 -3.999700 0.224300 -2.963600 -25.969801 -0.102500 0.444600 -16.355700 -0.041100 0.285900 -12.524500 0.537900 -2.471900 -41.185902 -0.251200 0.668500 -33.134102 -0.165100 0.554900 -17.481600 0.705300 0.026300 -30.151199 1.914400 -3.024100 -53.280899 -0.408200 0.813800 13.697600 1.791600 5.148900 57.882500 9.568300 -11.976600 0.000000 0.000000 10.889500 6.249000 -2.271800 -6.255500 0.426900 1.933300 -16.522699 -5.741900 1.932200 -9.564200 -5.010500 1.171500 -9.603300 5.754000 0.255500 2.664900 20.376400 -0.142900 -0.795400 10.494700 -0.038200 -0.416100 7.098300 0.299800 1.875600 32.143398 -0.350200 -1.215500 19.434700 -0.122300 -0.760100 16.330900 0.565800 0.896200 38.297699 -0.491700 -1.415900 38.188000 -0.481800 -1.412400 21.925100 0.691200 1.529600 31.834700 -0.343700 -1.205000 57.094501 -1.043600 -1.918200 -23.810900 12.946700 17.731001 20.347700 -4.318600 3.761800 3.302000 0.189800 -9.963900 2.318400 -0.000000 0.000000 -3.360800 -8.770100 7.329300 25.539000 -7.595300 1.433600 -18.529800 0.444100 -2.935700 -0.299900 -0.000000 -0.000000 
-0.010807 0.727102 0.001696 -6.075300 -3.382600 -4.365500 -2.225500 -1.522800 4.911000 -0.058400 -2.131200 6.461200 -0.005500 -1.902000 6.533500 5.241500 0.432100 -2.783100 -0.000000 0.000000 -0.000000 3.150500 4.277700 -10.705000 -10.145800 0.147400 2.659300 -80.898697 16.762800 6.433300 -0.000000 -0.000000 -13.252000 -6.448200 -7.939900 8.210200 0.962200 6.706400 19.969801 6.523900 -5.898800 8.178200 5.231700 -1.657800 15.521600 -8.207100 0.382900 -2.120700 -28.829300 -0.125800 0.489500 -22.504101 -0.077300 0.388600 -3.999700 0.224300 -2.963600 -25.969801 -0.102500 0.444600 -16.355700 -0.041100 0.285900 -12.499900 0.537000 -2.472500 -41.072399 -0.249900 0.667000 -33.020599 -0.164000 0.553200 -17.411200 0.703100 0.024100 -30.020399 1.907500 -3.030800 -53.149899 -0.406400 0.812400 13.738600 1.804100 5.193200 58.233299 9.722800 -11.994700 0.000000 0.000000 10.735600 6.330900 -2.240400 -6.219600 0.467700 1.912100 -16.549101 -5.821200 1.947000 -9.485600 -5.034600 1.068300 -9.631200 5.781100 0.256400 2.645700 20.305700 -0.142000 -0.792800 10.501900 -0.038300 -0.416400 7.136000 0.301000 1.873800 32.063900 -0.348500 -1.212800 19.174601 -0.118900 -0.750300 16.267099 0.564200 0.914100 38.164398 -0.488400 -1.411700 37.804901 -0.472500 -1.400400 21.783600 0.688400 1.538400 31.757900 -0.342100 -1.202400 56.504101 -1.023900 -1.905300 -23.814400 12.977100 17.735800 20.364901 -4.314600 3.704100 3.261900 0.193000 -9.916300 2.322000 0.000000 0.000000 -3.340900 -8.765800 7.323200 25.504601 -7.620100 1.405700 -18.530100 0.439500 -2.909400 -0.299900 -0.000000 0.000000 
-0.010773 0.727154 0.001924 -6.069600 -3.377500 -4.341100 -2.199500 -1.511800 4.871000 -0.060400 -2.128700 6.410400 -0.007800 -1.904200 6.481800 5.232800 0.437200 -2.784600 -0.000000 0.000000 -0.000000 3.445700 4.308800 -10.829700 -10.073700 0.139200 2.703500 -80.858498 16.684799 6.444300 0.000000 0.000000 -13.251700 -6.493100 -7.886700 8.212600 0.962200 6.706400 19.969700 6.523900 -5.898800 8.178200 5.231700 -1.657800 15.521600 -8.207100 0.382900 -2.120700 -28.829201 -0.125800 0.489500 -22.504101 -0.077300 0.388600 -3.999700 0.224300 -2.963600 -25.969700 -0.102500 0.444600 -16.355700 -0.041100 0.285900 -12.469100 0.536000 -2.473400 -40.930302 -0.248200 0.665100 -32.878502 -0.162600 0.551100 -17.323099 0.700200 0.021400 -29.856600 1.898800 -3.039100 -52.986000 -0.404100 0.810700 13.781300 1.808000 5.195900 58.557899 9.851300 -11.980300 0.000000 0.000000 10.644100 6.477300 -2.266500 -6.125500 0.515300 1.887200 -16.589300 -5.943000 1.969700 -9.364700 -5.071200 0.909300 -9.665700 5.812400 0.257400 2.623400 20.197001 -0.140500 -0.788700 10.510200 -0.038300 -0.416700 7.179500 0.302400 1.871600 31.941799 -0.345900 -1.208600 18.774500 -0.113800 -0.735200 16.169001 0.561700 0.936000 37.959400 -0.483300 -1.405300 37.215698 -0.458200 -1.381700 21.566099 0.684000 1.551400 31.639799 -0.339600 -1.198400 55.596298 -0.993900 -1.885100 -23.797400 13.002800 17.724899 20.368700 -4.292300 3.661600 3.228200 0.194900 -9.880300 2.337500 -0.000000 0.000000 -3.314700 -8.765800 7.309600 25.470301 -7.631100 1.375600 -18.531601 0.434000 -2.883600 -0.300700 -0.000000 0.000000 
-0.010734 0.727211 0.002165 -6.070800 -3.377100 -4.312800 -2.158900 -1.498400 4.839100 -0.051800 -2.123600 6.359200 0.000900 -1.904700 6.429300 5.236900 0.432600 -2.771800 -0.000000 0.000000 -0.000000 3.853700 4.291700 -10.923400 -9.976500 0.130400 2.750500 -80.842796 16.589100 6.443800 0.000000 -0.000000 -13.250900 -6.558000 -7.790500 8.271900 0.962200 6.706400 19.969801 6.524000 -5.898800 8.178200 5.231700 -1.657800 15.521600 -8.207100 0.382900 -2.120700 -28.829201 -0.125800 0.489500 -22.504200 -0.077300 0.388600 -3.999700 0.224300 -2.963600 -25.969700 -0.102500 0.444600 -16.355700 -0.041100 0.285900 -12.432400 0.534700 -2.474400 -40.761501 -0.246300 0.662900 -32.709599 -0.161000 0.548600 -17.218300 0.696800 0.018200 -29.661800 1.888400 -3.049000 -52.791100 -0.401300 0.808600 13.803200 1.803500 5.165700 58.803200 9.953700 -11.933100 -0.000000 -0.000000 10.613200 6.668800 -2.324100 -5.918200 0.569100 1.858800 -16.642599 -6.104500 1.999700 -9.204600 -5.119700 0.698200 -9.706500 5.847700 0.258600 2.598400 20.052900 -0.138500 -0.783300 10.519500 -0.038400 -0.417100 7.228500 0.304000 1.869200 31.779800 -0.342500 -1.203200 18.244400 -0.107100 -0.715200 16.038799 0.558400 0.961600 37.687698 -0.476700 -1.396700 36.434898 -0.439600 -1.356800 21.277700 0.678100 1.568200 31.483299 -0.336300 -1.193100 54.393101 -0.954600 -1.857600 -23.759100 13.016800 17.697201 20.358000 -4.261900 3.639300 3.199400 0.195800 -9.862800 2.366900 -0.000000 0.000000 -3.281300 -8.781600 7.284700 25.436300 -7.613000 1.349500 -18.533899 0.428800 -2.864900 -0.299200 -0.000000 -0.000000 
